<svg
        width="24"
        height="24"
        viewBox="0 0 24 24"
        fill="none"
        xmlns="http://www.w3.org/2000/svg"
>
    <path
            d="M2.98539 10.205C3.25498 9.87575 3.38978 9.71114 3.52075 9.75805C3.65173 9.80496 3.65134 10.0334 3.65055 10.4901C3.65054 10.4959 3.65053 10.5017 3.65053 10.5075C3.65053 15.9432 8.05703 20.3497 13.4927 20.3497C13.4985 20.3497 13.5043 20.3497 13.5101 20.3497C13.9668 20.3489 14.1952 20.3485 14.2421 20.4795C14.289 20.6104 14.1244 20.7452 13.7952 21.0148C12.4707 22.0994 10.7772 22.7502 8.93171 22.7502C4.68922 22.7502 1.25 19.311 1.25 15.0685C1.25 13.223 1.90078 11.5295 2.98539 10.205Z"
            fill="#0097EC"
    ></path>
    <path
            fill-rule="evenodd"
            clip-rule="evenodd"
            d="M14 1.25018C9.1675 1.25018 5.25 5.16769 5.25 10.0002C5.25 14.8327 9.1675 18.7502 14 18.7502C18.8325 18.7502 22.75 14.8327 22.75 10.0002C22.75 5.16769 18.8325 1.25018 14 1.25018ZM14.7351 6.00018C14.7351 5.58597 14.3993 5.25018 13.9851 5.25018C13.5708 5.25018 13.2351 5.58597 13.2351 6.00018V6.24151C12.2129 6.5245 11.3879 7.37235 11.3879 8.50241C11.3879 9.09283 11.5615 9.69276 12.0901 10.1143C12.5802 10.5051 13.2478 10.6352 13.9851 10.6352C14.5988 10.6352 14.8989 10.7459 15.0381 10.8533C15.1339 10.9273 15.2501 11.0732 15.2501 11.4983C15.2501 11.8491 15.1283 12.017 14.9754 12.1258C14.7844 12.2615 14.4551 12.3615 13.9851 12.3615C13.2345 12.3615 12.802 11.9346 12.7329 11.618C12.6445 11.2133 12.2448 10.9569 11.8402 11.0453C11.4355 11.1336 11.1791 11.5333 11.2674 11.938C11.4755 12.8911 12.2888 13.5446 13.2351 13.7724V14.0002C13.2351 14.4144 13.5708 14.7502 13.9851 14.7502C14.3993 14.7502 14.7351 14.4144 14.7351 14.0002V13.7962C15.1306 13.7232 15.5139 13.5833 15.8445 13.3483C16.4209 12.9385 16.7501 12.2998 16.7501 11.4983C16.7501 10.7712 16.5306 10.1105 15.9547 9.66593C15.4221 9.25482 14.7147 9.13513 13.9851 9.13513C13.3789 9.13513 13.1229 9.0193 13.0253 8.94146C12.9662 8.89435 12.8879 8.80293 12.8879 8.50241C12.8879 8.11789 13.2805 7.63925 13.9851 7.63925C14.6035 7.63925 14.9996 8.02279 15.0691 8.36977C15.1505 8.77591 15.5457 9.03917 15.9519 8.95779C16.358 8.8764 16.6213 8.48118 16.5399 8.07504C16.3557 7.15605 15.6245 6.48476 14.7351 6.24034V6.00018Z"
            fill="#0097EC"
    ></path>
</svg>